# Blender 3.4.1
# www.blender.org
mtllib rond.mtl
o Cube.001
v 0.500000 0.500000 -0.500000
v 0.500000 -0.500000 -0.500000
v 0.500000 0.500000 0.500000
v 0.500000 -0.500000 0.500000
v -0.500000 0.500000 -0.500000
v -0.500000 -0.500000 -0.500000
v -0.500000 0.500000 0.500000
v -0.500000 -0.500000 0.500000
v -0.572933 -0.572933 -0.296650
v -0.609568 -0.609568 -0.000000
v -0.572933 -0.572933 0.296650
v 0.296650 -0.572933 -0.572933
v 0.000000 -0.609568 -0.609568
v -0.296650 -0.572933 -0.572933
v 0.572933 0.296650 -0.572933
v 0.609568 0.000000 -0.609568
v 0.572933 -0.296650 -0.572933
v -0.572933 -0.296650 0.572933
v -0.609568 -0.000000 0.609568
v -0.572933 0.296650 0.572933
v 0.572933 0.296650 0.572933
v 0.609568 -0.000000 0.609568
v 0.572933 -0.296650 0.572933
v -0.572933 0.296650 -0.572933
v -0.609568 0.000000 -0.609568
v -0.572933 -0.296650 -0.572933
v 0.296650 0.572933 0.572933
v 0.000000 0.609568 0.609568
v -0.296650 0.572933 0.572933
v 0.572933 0.572933 -0.296650
v 0.609568 0.609568 0.000000
v 0.572933 0.572933 0.296650
v -0.296650 -0.572933 0.572933
v 0.000000 -0.609568 0.609568
v 0.296650 -0.572933 0.572933
v -0.572933 0.572933 0.296650
v -0.609568 0.609568 0.000000
v -0.572933 0.572933 -0.296650
v -0.296650 0.572933 -0.572933
v 0.000000 0.609568 -0.609568
v 0.296650 0.572933 -0.572933
v 0.572933 -0.572933 0.296650
v 0.609568 -0.609568 -0.000000
v 0.572933 -0.572933 -0.296650
v 0.316157 0.728990 -0.316157
v 0.000000 0.781829 -0.333140
v -0.316157 0.728990 -0.316157
v 0.333140 0.781829 0.000000
v 0.000000 0.839506 0.000000
v -0.333140 0.781829 0.000000
v 0.316157 0.728990 0.316157
v 0.000000 0.781829 0.333140
v -0.316157 0.728990 0.316157
v 0.316157 -0.316157 0.728990
v 0.333140 -0.000000 0.781829
v 0.316157 0.316157 0.728990
v 0.000000 -0.333140 0.781829
v 0.000000 -0.000000 0.839506
v 0.000000 0.333140 0.781829
v -0.316157 -0.316157 0.728990
v -0.333140 -0.000000 0.781829
v -0.316157 0.316157 0.728990
v -0.728990 -0.316157 0.316157
v -0.781829 -0.000000 0.333140
v -0.728990 0.316157 0.316157
v -0.781829 -0.333140 -0.000000
v -0.839506 0.000000 0.000000
v -0.781829 0.333140 0.000000
v -0.728990 -0.316157 -0.316157
v -0.781829 0.000000 -0.333140
v -0.728990 0.316157 -0.316157
v -0.316157 -0.728990 -0.316157
v 0.000000 -0.781829 -0.333140
v 0.316157 -0.728990 -0.316157
v -0.333140 -0.781829 -0.000000
v 0.000000 -0.839506 -0.000000
v 0.333140 -0.781829 -0.000000
v -0.316157 -0.728990 0.316157
v 0.000000 -0.781829 0.333140
v 0.316157 -0.728990 0.316157
v 0.728990 -0.316157 -0.316157
v 0.781829 0.000000 -0.333140
v 0.728990 0.316157 -0.316157
v 0.781829 -0.333140 -0.000000
v 0.839506 0.000000 0.000000
v 0.781829 0.333140 0.000000
v 0.728990 -0.316157 0.316157
v 0.781829 -0.000000 0.333140
v 0.728990 0.316157 0.316157
v -0.316157 -0.316157 -0.728990
v -0.333140 0.000000 -0.781829
v -0.316157 0.316157 -0.728990
v 0.000000 -0.333140 -0.781829
v 0.000000 0.000000 -0.839506
v 0.000000 0.333140 -0.781829
v 0.316157 -0.316157 -0.728990
v 0.333140 0.000000 -0.781829
v 0.316157 0.316157 -0.728990
vn 0.1697 0.9708 -0.1697
vn -0.1697 0.9708 -0.1697
vn 0.1697 0.9708 0.1697
vn -0.1697 0.9708 0.1697
vn 0.4674 0.7504 -0.4674
vn 0.1678 0.8367 -0.5213
vn -0.1678 0.8367 -0.5213
vn -0.4674 0.7504 -0.4674
vn -0.5213 0.8367 -0.1678
vn -0.5213 0.8367 0.1678
vn -0.4674 0.7504 0.4674
vn -0.1678 0.8367 0.5213
vn 0.1678 0.8367 0.5213
vn 0.4674 0.7504 0.4674
vn 0.5213 0.8367 0.1678
vn 0.5213 0.8367 -0.1678
vn 0.1697 -0.1697 0.9708
vn 0.1697 0.1697 0.9708
vn -0.1697 -0.1697 0.9708
vn -0.1697 0.1697 0.9708
vn 0.4674 -0.4674 0.7504
vn 0.5213 -0.1678 0.8367
vn 0.5213 0.1678 0.8367
vn 0.4674 0.4674 0.7504
vn 0.1678 0.5213 0.8367
vn -0.1678 0.5213 0.8367
vn -0.4674 0.4674 0.7504
vn -0.5213 0.1678 0.8367
vn -0.5213 -0.1678 0.8367
vn -0.4674 -0.4674 0.7504
vn -0.1678 -0.5213 0.8367
vn 0.1678 -0.5213 0.8367
vn -0.9708 -0.1697 0.1697
vn -0.9708 0.1697 0.1697
vn -0.9708 -0.1697 -0.1697
vn -0.9708 0.1697 -0.1697
vn -0.7504 -0.4674 0.4674
vn -0.8367 -0.1678 0.5213
vn -0.8367 0.1678 0.5213
vn -0.7504 0.4674 0.4674
vn -0.8367 0.5213 0.1678
vn -0.8367 0.5213 -0.1678
vn -0.7504 0.4674 -0.4674
vn -0.8367 0.1678 -0.5213
vn -0.8367 -0.1678 -0.5213
vn -0.7504 -0.4674 -0.4674
vn -0.8367 -0.5213 -0.1678
vn -0.8367 -0.5213 0.1678
vn -0.1697 -0.9708 -0.1697
vn 0.1697 -0.9708 -0.1697
vn -0.1697 -0.9708 0.1697
vn 0.1697 -0.9708 0.1697
vn -0.4674 -0.7504 -0.4674
vn -0.1678 -0.8367 -0.5213
vn 0.1678 -0.8367 -0.5213
vn 0.4674 -0.7504 -0.4674
vn 0.5213 -0.8367 -0.1678
vn 0.5213 -0.8367 0.1678
vn 0.4674 -0.7504 0.4674
vn 0.1678 -0.8367 0.5213
vn -0.1678 -0.8367 0.5213
vn -0.4674 -0.7504 0.4674
vn -0.5213 -0.8367 0.1678
vn -0.5213 -0.8367 -0.1678
vn 0.9708 -0.1697 -0.1697
vn 0.9708 0.1697 -0.1697
vn 0.9708 -0.1697 0.1697
vn 0.9708 0.1697 0.1697
vn 0.7504 -0.4674 -0.4674
vn 0.8367 -0.1678 -0.5213
vn 0.8367 0.1678 -0.5213
vn 0.7504 0.4674 -0.4674
vn 0.8367 0.5213 -0.1678
vn 0.8367 0.5213 0.1678
vn 0.7504 0.4674 0.4674
vn 0.8367 0.1678 0.5213
vn 0.8367 -0.1678 0.5213
vn 0.7504 -0.4674 0.4674
vn 0.8367 -0.5213 0.1678
vn 0.8367 -0.5213 -0.1678
vn -0.1697 -0.1697 -0.9708
vn -0.1697 0.1697 -0.9708
vn 0.1697 -0.1697 -0.9708
vn 0.1697 0.1697 -0.9708
vn -0.4674 -0.4674 -0.7504
vn -0.5213 -0.1678 -0.8367
vn -0.5213 0.1678 -0.8367
vn -0.4674 0.4674 -0.7504
vn -0.1678 0.5213 -0.8367
vn 0.1678 0.5213 -0.8367
vn 0.4674 0.4674 -0.7504
vn 0.5213 0.1678 -0.8367
vn 0.5213 -0.1678 -0.8367
vn 0.4674 -0.4674 -0.7504
vn 0.1678 -0.5213 -0.8367
vn -0.1678 -0.5213 -0.8367
vt 0.625000 0.500000
vt 0.375000 0.500000
vt 0.625000 0.750000
vt 0.375000 0.750000
vt 0.875000 0.500000
vt 0.625000 0.250000
vt 0.125000 0.500000
vt 0.375000 0.250000
vt 0.875000 0.750000
vt 0.625000 1.000000
vt 0.625000 0.000000
vt 0.375000 1.000000
vt 0.375000 0.000000
vt 0.125000 0.750000
vt 0.375000 0.187500
vt 0.125000 0.562500
vt 0.375000 0.125000
vt 0.125000 0.625000
vt 0.375000 0.062500
vt 0.125000 0.687500
vt 0.312500 0.500000
vt 0.375000 0.437500
vt 0.250000 0.500000
vt 0.375000 0.375000
vt 0.187500 0.500000
vt 0.375000 0.312500
vt 0.562500 0.500000
vt 0.500000 0.500000
vt 0.437500 0.500000
vt 0.437500 1.000000
vt 0.437500 0.000000
vt 0.500000 1.000000
vt 0.500000 0.000000
vt 0.562500 1.000000
vt 0.562500 0.000000
vt 0.562500 0.750000
vt 0.500000 0.750000
vt 0.437500 0.750000
vt 0.562500 0.250000
vt 0.500000 0.250000
vt 0.437500 0.250000
vt 0.687500 0.750000
vt 0.625000 0.812500
vt 0.750000 0.750000
vt 0.625000 0.875000
vt 0.812500 0.750000
vt 0.625000 0.937500
vt 0.625000 0.562500
vt 0.625000 0.625000
vt 0.625000 0.687500
vt 0.375000 0.937500
vt 0.187500 0.750000
vt 0.375000 0.875000
vt 0.250000 0.750000
vt 0.375000 0.812500
vt 0.312500 0.750000
vt 0.875000 0.687500
vt 0.625000 0.062500
vt 0.875000 0.625000
vt 0.625000 0.125000
vt 0.875000 0.562500
vt 0.625000 0.187500
vt 0.812500 0.500000
vt 0.625000 0.312500
vt 0.750000 0.500000
vt 0.625000 0.375000
vt 0.687500 0.500000
vt 0.625000 0.437500
vt 0.375000 0.687500
vt 0.375000 0.625000
vt 0.375000 0.562500
vt 0.687500 0.562500
vt 0.750000 0.562500
vt 0.812500 0.562500
vt 0.687500 0.625000
vt 0.750000 0.625000
vt 0.812500 0.625000
vt 0.687500 0.687500
vt 0.750000 0.687500
vt 0.812500 0.687500
vt 0.437500 0.812500
vt 0.500000 0.812500
vt 0.562500 0.812500
vt 0.437500 0.875000
vt 0.500000 0.875000
vt 0.562500 0.875000
vt 0.437500 0.937500
vt 0.500000 0.937500
vt 0.562500 0.937500
vt 0.437500 0.062500
vt 0.500000 0.062500
vt 0.562500 0.062500
vt 0.437500 0.125000
vt 0.500000 0.125000
vt 0.562500 0.125000
vt 0.437500 0.187500
vt 0.500000 0.187500
vt 0.562500 0.187500
vt 0.187500 0.562500
vt 0.250000 0.562500
vt 0.312500 0.562500
vt 0.187500 0.625000
vt 0.250000 0.625000
vt 0.312500 0.625000
vt 0.187500 0.687500
vt 0.250000 0.687500
vt 0.312500 0.687500
vt 0.437500 0.562500
vt 0.500000 0.562500
vt 0.562500 0.562500
vt 0.437500 0.625000
vt 0.500000 0.625000
vt 0.562500 0.625000
vt 0.437500 0.687500
vt 0.500000 0.687500
vt 0.562500 0.687500
vt 0.437500 0.312500
vt 0.500000 0.312500
vt 0.562500 0.312500
vt 0.437500 0.375000
vt 0.500000 0.375000
vt 0.562500 0.375000
vt 0.437500 0.437500
vt 0.500000 0.437500
vt 0.562500 0.437500
s 0
usemtl Material.001
f 45/72/1 46/73/1 49/76/1 48/75/1
f 46/73/2 47/74/2 50/77/2 49/76/2
f 48/75/3 49/76/3 52/79/3 51/78/3
f 49/76/4 50/77/4 53/80/4 52/79/4
f 1/1/5 41/67/5 45/72/5 30/48/5
f 41/67/6 40/65/6 46/73/6 45/72/6
f 40/65/7 39/63/7 47/74/7 46/73/7
f 39/63/8 5/5/8 38/61/8 47/74/8
f 47/74/9 38/61/9 37/59/9 50/77/9
f 50/77/10 37/59/10 36/57/10 53/80/10
f 53/80/11 36/57/11 7/9/11 29/46/11
f 52/79/12 53/80/12 29/46/12 28/44/12
f 51/78/13 52/79/13 28/44/13 27/42/13
f 32/50/14 51/78/14 27/42/14 3/3/14
f 31/49/15 48/75/15 51/78/15 32/50/15
f 30/48/16 45/72/16 48/75/16 31/49/16
f 54/81/17 55/82/17 58/85/17 57/84/17
f 55/82/18 56/83/18 59/86/18 58/85/18
f 57/84/19 58/85/19 61/88/19 60/87/19
f 58/85/20 59/86/20 62/89/20 61/88/20
f 4/4/21 23/38/21 54/81/21 35/55/21
f 23/38/22 22/37/22 55/82/22 54/81/22
f 22/37/23 21/36/23 56/83/23 55/82/23
f 21/36/24 3/3/24 27/43/24 56/83/24
f 56/83/25 27/43/25 28/45/25 59/86/25
f 59/86/26 28/45/26 29/47/26 62/89/26
f 62/89/27 29/47/27 7/10/27 20/34/27
f 61/88/28 62/89/28 20/34/28 19/32/28
f 60/87/29 61/88/29 19/32/29 18/30/29
f 33/51/30 60/87/30 18/30/30 8/12/30
f 34/53/31 57/84/31 60/87/31 33/51/31
f 35/55/32 54/81/32 57/84/32 34/53/32
f 63/90/33 64/91/33 67/94/33 66/93/33
f 64/91/34 65/92/34 68/95/34 67/94/34
f 66/93/35 67/94/35 70/97/35 69/96/35
f 67/94/36 68/95/36 71/98/36 70/97/36
f 8/13/37 18/31/37 63/90/37 11/19/37
f 18/31/38 19/33/38 64/91/38 63/90/38
f 19/33/39 20/35/39 65/92/39 64/91/39
f 20/35/40 7/11/40 36/58/40 65/92/40
f 65/92/41 36/58/41 37/60/41 68/95/41
f 68/95/42 37/60/42 38/62/42 71/98/42
f 71/98/43 38/62/43 5/6/43 24/39/43
f 70/97/44 71/98/44 24/39/44 25/40/44
f 69/96/45 70/97/45 25/40/45 26/41/45
f 9/15/46 69/96/46 26/41/46 6/8/46
f 10/17/47 66/93/47 69/96/47 9/15/47
f 11/19/48 63/90/48 66/93/48 10/17/48
f 72/99/49 73/100/49 76/103/49 75/102/49
f 73/100/50 74/101/50 77/104/50 76/103/50
f 75/102/51 76/103/51 79/106/51 78/105/51
f 76/103/52 77/104/52 80/107/52 79/106/52
f 6/7/53 14/25/53 72/99/53 9/16/53
f 14/25/54 13/23/54 73/100/54 72/99/54
f 13/23/55 12/21/55 74/101/55 73/100/55
f 12/21/56 2/2/56 44/71/56 74/101/56
f 74/101/57 44/71/57 43/70/57 77/104/57
f 77/104/58 43/70/58 42/69/58 80/107/58
f 80/107/59 42/69/59 4/4/59 35/56/59
f 79/106/60 80/107/60 35/56/60 34/54/60
f 78/105/61 79/106/61 34/54/61 33/52/61
f 11/20/62 78/105/62 33/52/62 8/14/62
f 10/18/63 75/102/63 78/105/63 11/20/63
f 9/16/64 72/99/64 75/102/64 10/18/64
f 81/108/65 82/109/65 85/112/65 84/111/65
f 82/109/66 83/110/66 86/113/66 85/112/66
f 84/111/67 85/112/67 88/115/67 87/114/67
f 85/112/68 86/113/68 89/116/68 88/115/68
f 2/2/69 17/29/69 81/108/69 44/71/69
f 17/29/70 16/28/70 82/109/70 81/108/70
f 16/28/71 15/27/71 83/110/71 82/109/71
f 15/27/72 1/1/72 30/48/72 83/110/72
f 83/110/73 30/48/73 31/49/73 86/113/73
f 86/113/74 31/49/74 32/50/74 89/116/74
f 89/116/75 32/50/75 3/3/75 21/36/75
f 88/115/76 89/116/76 21/36/76 22/37/76
f 87/114/77 88/115/77 22/37/77 23/38/77
f 42/69/78 87/114/78 23/38/78 4/4/78
f 43/70/79 84/111/79 87/114/79 42/69/79
f 44/71/80 81/108/80 84/111/80 43/70/80
f 90/117/81 91/118/81 94/121/81 93/120/81
f 91/118/82 92/119/82 95/122/82 94/121/82
f 93/120/83 94/121/83 97/124/83 96/123/83
f 94/121/84 95/122/84 98/125/84 97/124/84
f 6/8/85 26/41/85 90/117/85 14/26/85
f 26/41/86 25/40/86 91/118/86 90/117/86
f 25/40/87 24/39/87 92/119/87 91/118/87
f 24/39/88 5/6/88 39/64/88 92/119/88
f 92/119/89 39/64/89 40/66/89 95/122/89
f 95/122/90 40/66/90 41/68/90 98/125/90
f 98/125/91 41/68/91 1/1/91 15/27/91
f 97/124/92 98/125/92 15/27/92 16/28/92
f 96/123/93 97/124/93 16/28/93 17/29/93
f 12/22/94 96/123/94 17/29/94 2/2/94
f 13/24/95 93/120/95 96/123/95 12/22/95
f 14/26/96 90/117/96 93/120/96 13/24/96
