# Blender 3.4.1
# www.blender.org
mtllib test.mtl
o jundi_red
v -1.203306 0.241536 130.837616
v -1.203306 16.218452 130.837616
v -13.445265 0.241536 124.552986
v -13.445265 16.218452 124.552986
v -0.980709 0.241536 130.404007
v -0.980709 16.218452 130.404007
v -13.222668 0.241536 124.119385
v -13.222668 16.218452 124.119385
v -0.980709 0.241536 130.404007
v -0.980709 16.218452 130.404007
v -13.222668 0.241536 124.119385
v -13.222668 16.218452 124.119385
v -12.514309 15.451119 124.186676
v -12.514309 1.008868 124.186676
v -1.448253 1.008868 129.867630
v -1.448253 15.451119 129.867630
v -12.477055 15.144462 124.692436
v -12.477055 1.315526 124.692436
v -1.880939 1.315526 130.132141
v -1.880939 15.144462 130.132141
v -12.399746 15.144462 124.541847
v -12.399746 1.315526 124.541847
v -1.803630 1.315526 129.981552
v -1.803630 15.144462 129.981552
v -12.867290 15.911795 124.005470
v -12.867290 0.548193 124.005470
v -1.095272 0.548193 130.048843
v -1.095272 15.911795 130.048843
vn -0.4567 -0.0000 0.8896
vn -0.8896 -0.0000 -0.4567
vn 0.8896 -0.0000 0.4567
vn -0.0000 -1.0000 -0.0000
vn -0.0000 1.0000 -0.0000
vn 0.4567 -0.0000 -0.8896
vn 0.9517 -0.0000 -0.3070
vn 0.3463 0.6519 -0.6746
vn 0.3463 -0.6519 -0.6746
vn -0.3053 -0.0000 -0.9523
vt 0.375000 0.000000
vt 0.375000 1.000000
vt 0.125000 0.750000
vt 0.625000 0.000000
vt 0.625000 1.000000
vt 0.875000 0.750000
vt 0.125000 0.500000
vt 0.375000 0.250000
vt 0.625000 0.250000
vt 0.875000 0.500000
vt 0.375000 0.750000
vt 0.625000 0.750000
vt 0.375000 0.500000
vt 0.625000 0.500000
vt 0.375000 0.750000
vt 0.625000 0.750000
vt 0.375000 0.500000
vt 0.625000 0.500000
vt 0.612993 0.512007
vt 0.387007 0.512007
vt 0.387007 0.737993
vt 0.612993 0.737993
vt 1.001962 0.971236
vt 0.608195 0.516805
vt 1.001962 0.006906
vt 0.391805 0.516805
vt -0.001962 0.006906
vt 0.391805 0.733195
vt -0.001962 0.971236
vt 0.608195 0.733195
vt 0.608195 0.516805
vt 0.391805 0.516805
vt 0.391805 0.733195
vt 0.608195 0.733195
vt 0.620202 0.504798
vt 0.379798 0.504798
vt 0.379798 0.745202
vt 0.620202 0.745202
s 0
usemtl cadre_clair
f 2/4/1 3/8/1 1/1/1
f 4/9/2 7/13/2 3/8/2
f 6/12/3 1/2/3 5/11/3
f 7/13/4 1/3/4 3/7/4
f 4/10/5 6/12/5 8/14/5
f 23/33/2 20/30/2 24/34/2
f 14/20/6 25/35/6 13/19/6
f 15/21/6 26/36/6 14/20/6
f 13/19/6 28/38/6 16/22/6
f 16/22/6 27/37/6 15/21/6
f 22/32/5 19/28/5 23/33/5
f 24/34/4 17/24/4 21/31/4
f 21/31/3 18/26/3 22/32/3
f 13/19/7 22/32/7 14/20/7
f 14/20/8 23/33/8 15/21/8
f 16/22/9 21/31/9 13/19/9
f 16/22/10 23/33/10 24/34/10
f 26/36/10 12/18/10 25/35/10
f 27/37/9 11/17/9 26/36/9
f 25/35/8 10/16/8 28/38/8
f 28/38/7 9/15/7 27/37/7
f 2/4/1 4/9/1 3/8/1
f 4/9/2 8/14/2 7/13/2
f 6/12/3 2/5/3 1/2/3
f 7/13/4 5/11/4 1/3/4
f 4/10/5 2/6/5 6/12/5
f 23/33/2 19/28/2 20/30/2
f 14/20/6 26/36/6 25/35/6
f 15/21/6 27/37/6 26/36/6
f 13/19/6 25/35/6 28/38/6
f 16/22/6 28/38/6 27/37/6
f 22/32/5 18/26/5 19/28/5
f 24/34/4 20/30/4 17/24/4
f 21/31/3 17/24/3 18/26/3
f 13/19/7 21/31/7 22/32/7
f 14/20/8 22/32/8 23/33/8
f 16/22/9 24/34/9 21/31/9
f 16/22/10 15/21/10 23/33/10
f 26/36/10 11/17/10 12/18/10
f 27/37/9 9/15/9 11/17/9
f 25/35/8 12/18/8 10/16/8
f 28/38/7 10/16/7 9/15/7
usemtl jundi_red
f 17/23/6 19/27/6 18/25/6
f 17/23/6 20/29/6 19/27/6
